HIERARCHY
ROOT Hips
{
  OFFSET 11.3391 97.7151 185.506
  CHANNELS 6 Xposition Yposition Zposition Zrotation Xrotation Yrotation
  JOINT RightUpLeg
  {
    OFFSET -8.9458 -8.66707 0.101652
    CHANNELS 3 Zrotation Xrotation Yrotation
    JOINT RightLeg
    {
      OFFSET 0 -44.4227 1.3727
      CHANNELS 3 Zrotation Xrotation Yrotation
      JOINT RightFoot
      {
        OFFSET 0.253549 -42.0924 -1.46059
        CHANNELS 3 Zrotation Xrotation Yrotation
        JOINT RightToes
        {
          OFFSET 0.04 -4.41509 8.4991
          CHANNELS 3 Zrotation Xrotation Yrotation
          End Site
          {
            OFFSET -0.08 -0.137448 9.77979
          }
        }
      }
    }
  }
  JOINT Spine
  {
    OFFSET 0 11.8905 0
    CHANNELS 3 Zrotation Xrotation Yrotation
    JOINT Spine1
    {
      OFFSET 0 25.6574 0.127663
      CHANNELS 3 Zrotation Xrotation Yrotation
      JOINT HEad
      {
        OFFSET 0 8.73416 0.011341
        CHANNELS 3 Zrotation Xrotation Yrotation
        End Site
        {
          OFFSET -0.29 12.7742 2.51395
        }
      }
      JOINT LeftShoulder1
      {
        OFFSET 8.99 -0.362252 -0.22
        CHANNELS 3 Zrotation Xrotation Yrotation
        JOINT LeftArm
        {
          OFFSET 10.2827 -0.00338 0.322123
          CHANNELS 3 Zrotation Xrotation Yrotation
          JOINT LeftForeArm
          {
            OFFSET 32.7669 0.099144 -1.42434
            CHANNELS 3 Zrotation Xrotation Yrotation
            JOINT LeftHand
            {
              OFFSET 27.5643 0.085362 1.02216
              CHANNELS 3 Zrotation Xrotation Yrotation
              End Site
              {
                OFFSET 16.7443 -0.6 1.50291
              }
            }
          }
        }
      }
      JOINT RightShoulder
      {
        OFFSET -8.99 -0.362252 -0.22
        CHANNELS 3 Zrotation Xrotation Yrotation
        JOINT RightArm
        {
          OFFSET -10.2827 -0.00338 0.322123
          CHANNELS 3 Zrotation Xrotation Yrotation
          JOINT RightForeArm
          {
            OFFSET -32.8971 0.099144 -1.42434
            CHANNELS 3 Zrotation Xrotation Yrotation
            JOINT RightHand
            {
              OFFSET -27.4921 0.085362 1.02216
              CHANNELS 3 Zrotation Xrotation Yrotation
              End Site
              {
                OFFSET -16.6312 -0.6 1.50291
              }
            }
          }
        }
      }
    }
  }
  JOINT LeftUpLeg
  {
    OFFSET 8.9458 -8.66707 0.101652
    CHANNELS 3 Zrotation Xrotation Yrotation
    JOINT LeftLeg
    {
      OFFSET 0 -44.4227 1.3727
      CHANNELS 3 Zrotation Xrotation Yrotation
      JOINT LeftFoot
      {
        OFFSET -0.253549 -42.0924 -1.46059
        CHANNELS 3 Zrotation Xrotation Yrotation
        JOINT LeftToes
        {
          OFFSET -0.04 -4.41509 8.4991
          CHANNELS 3 Zrotation Xrotation Yrotation
          End Site
          {
            OFFSET 0.08 -0.047448 9.77979
          }
        }
      }
    }
  }
}
MOTION
Frames:	12
Frame Time:	0.0166667
9.17437 98.879 220.433 -0.10957 0.0178201 179.106 2.8507 -26.3433 -0.150596 1.72516 25.0465 -16.8991 -0.532757 -2.40924 -0.219512 0.0462048 0.000533964 0.662642 -0.191063 3.7176 0.0544117 -0.201161 -2.21361 0.0832402 -2.89072 0.616702 -6.51756 6.21202e-018 1.98785e-016 1.98785e-016 -92.2508 -10.4536 -16.5709 -23.0007 12.8876 -4.60514 0.368473 9.90896 -0.00117926 5.14751 -0.952167 -10.8222 81.8238 -35.2333 1.80735 18.3856 12.9834 4.89979 -0.369625 9.91382 0.00119885 -4.21311 9.69499 -0.504859 -1.86324 32.1538 14.3902 -11.643 -4.17256 -0.0977598 1.63703e-011 -1.45892e-011 3.9916e-012 
9.2994 98.8602 218.198 1.07266 -0.284229 178.83 4.46301 -25.8804 -0.201146 1.46848 26.5227 -15.5989 -0.54735 -4.21336 -0.228807 0.578906 -0.4923 -1.1553 -0.0416893 3.79552 0.385435 1.60031 -3.12713 0.143861 -3.24825 0.62877 -6.87765 -7.45443e-017 -3.97569e-016 -0 -92.8487 -12.3465 -14.8993 -21.5384 12.6559 -3.16843 0.368473 9.90896 -0.00117926 4.51501 -1.02427 -11.7606 81.6361 -35.0789 1.81217 18.5091 12.9904 4.98132 -0.369625 9.91382 0.00119885 -2.46378 8.16244 -1.00092 -2.97443 35.6461 15.6597 -11.4709 -0.675753 0.251235 2.63306 6.85035 -0.688579 
9.44801 98.805 216.034 2.20131 -0.595065 178.649 5.95987 -25.4632 -0.265593 1.25678 27.9852 -14.5584 -0.577991 -6.03223 -0.24152 1.01091 -0.984177 -2.65351 0.222047 3.87487 0.650591 3.17657 -3.93422 0.200158 -3.48389 0.638214 -7.23372 1.95679e-016 -9.93923e-017 -9.93923e-017 -93.1786 -14.1856 -13.3797 -20.1638 12.439 -1.81133 0.368473 9.90896 -0.00117926 4.05808 -1.09275 -12.5706 81.4302 -34.8723 1.89173 18.6566 12.9969 5.0629 -0.369625 9.91382 0.00119885 -0.774427 6.34551 -1.31455 -4.02172 39.3926 17.0361 -11.3844 2.91268 0.609741 4.21708 12.178 -0.43001 
9.66654 98.6375 214.041 3.21913 -0.96097 178.678 7.18155 -25.2056 -0.396544 1.31918 29.4575 -14.2283 -0.675002 -7.95441 -0.26506 1.22534 -1.44755 -3.25036 0.793713 3.94487 0.743763 4.16398 -4.51323 0.250544 -3.37051 0.721438 -7.52808 2.6634e-016 -9.93923e-017 9.93923e-017 -93.0256 -15.9605 -12.2209 -18.9662 12.2783 -0.623374 0.368473 9.90896 -0.00117926 4.12923 -1.15959 -13.0587 81.0703 -34.5428 2.14115 18.8775 12.9967 5.11641 -0.369625 9.91382 0.00119885 0.925975 3.72369 -1.09711 -4.84056 44.0017 18.5049 -11.5918 7.20976 1.05893 2.14633 13.1642 2.8944 
9.91027 98.4399 212.207 4.10553 -1.27871 178.943 8.14229 -24.9483 -0.493087 1.58686 30.8022 -14.4558 -0.75145 -9.77316 -0.290243 1.35011 -1.96671 -3.4106 1.55544 4.04426 0.719483 4.74197 -4.80348 0.281741 -3.10295 0.638953 -7.91774 -3.75051e-016 -4.96962e-017 -0 -92.529 -17.3933 -11.4389 -18.095 12.1515 0.359863 0.368473 9.90896 -0.00117926 4.38656 -1.2087 -13.2925 80.8781 -34.0917 2.56726 19.1196 13.0069 5.22643 -0.369625 9.91382 0.00119885 2.41885 0.720379 -0.696006 -5.13554 48.8105 20.2127 -11.6663 10.7295 1.41224 -1.00003 12.0846 6.88864 
10.1589 98.2805 210.593 4.814 -1.4197 179.574 8.77944 -24.5252 -0.401377 2.0987 31.8067 -15.4087 -0.718579 -11.2196 -0.310075 1.45521 -2.69676 -3.33171 2.502 4.24597 0.568009 4.89318 -4.61002 0.270986 -2.75236 0.0715666 -8.6017 1.05255e-015 -1.98785e-016 2.48481e-017 -91.6829 -18.0405 -11.201 -17.7736 12.0482 1.08662 0.368473 9.90896 -0.00117926 4.65956 -1.22762 -13.2629 81.204 -33.4736 3.27687 19.3324 13.0399 5.4558 -0.369625 9.91382 0.00119885 3.4096 -2.42605 -0.232035 -4.09814 53.4427 22.6051 -10.9338 12.0924 1.44231 -3.51714 10.0904 9.73024 
10.3855 98.1264 209.081 5.35896 -1.50563 -179.617 9.15792 -24.0708 -0.335447 2.71804 32.6857 -16.5466 -0.627002 -12.5687 -0.32422 1.55569 -3.39602 -3.23448 3.49013 4.43638 0.375978 4.8451 -4.2139 0.245154 -2.50472 -0.659174 -9.39834 -4.81432e-016 0 9.93923e-017 -90.7529 -18.3884 -11.2702 -17.8642 11.9755 1.51475 0.368473 9.90896 -0.00117926 4.78536 -1.20693 -13.0068 81.8021 -32.7526 4.05221 19.5581 13.1028 5.84198 -0.369625 9.91382 0.00119885 4.03518 -5.67696 -0.0077649 -2.97403 57.6459 24.5406 -10.0902 11.6038 1.28336 -5.4093 8.07328 11.8612 
10.5381 97.9572 207.576 5.73533 -1.62545 -178.769 9.28619 -23.7034 -0.478075 3.31698 33.671 -17.3371 -0.50871 -14.0582 -0.331698 1.66668 -3.8003 -3.43815 4.37469 4.50513 0.235271 4.87066 -3.81623 0.224932 -2.62786 -1.35166 -10.2039 -5.28022e-016 -7.95139e-016 -1.98785e-016 -90.0536 -18.8209 -11.5068 -18.329 11.9236 1.62309 0.368473 9.90896 -0.00117926 4.46078 -1.12504 -12.5714 82.5677 -31.9789 4.6652 19.8419 13.2256 6.55596 -0.369625 9.91382 0.00119885 4.16249 -8.91591 -0.416087 -1.69513 61.1718 23.3029 -9.76267 8.50623 0.974425 -6.32277 8.04779 13.2517 
10.671 97.8037 206.077 5.9581 -1.74906 -177.895 9.29367 -23.3048 -0.759743 3.74443 34.5825 -17.8582 -0.330859 -15.5308 -0.327726 1.80494 -4.12897 -3.845 5.14825 4.51551 0.120965 4.81636 -3.4619 0.206128 -2.89361 -1.97203 -10.9809 8.82107e-016 0 1.98785e-016 -89.3151 -19.2132 -11.7738 -19.0875 11.9294 1.29612 0.368473 9.90896 -0.00117926 3.93 -1.00421 -11.9176 83.4773 -31.1631 5.2821 20.1194 13.348 7.26121 -0.369625 9.91382 0.00119885 3.94013 -12.1355 -1.3475 -0.228495 63.9738 21.1323 -9.71039 4.60258 0.630387 -6.65543 7.60439 13.5842 
10.8328 97.6915 204.549 6.01972 -1.88303 -177.042 9.33167 -22.8087 -1.26926 3.65218 35.3292 -17.8233 -0.0336752 -16.892 -0.301585 2.03257 -4.59693 -4.59204 5.73043 4.49057 0.0397298 4.58419 -3.29032 0.192109 -3.11913 -2.43738 -11.6845 -7.45443e-017 3.97569e-016 7.95139e-016 -88.3045 -19.5471 -11.892 -20.0584 12.0152 0.393816 0.368473 9.90896 -0.00117926 3.37569 -0.853446 -10.9615 84.4275 -30.3589 5.95919 20.3492 13.412 7.60125 -0.369625 9.91382 0.00119885 3.46 -15.3214 -2.96271 -0.137024 65.9064 20.9507 -9.93477 1.68573 0.382144 -6.4754 4.71002 12.2252 
10.9886 97.6158 202.993 5.98034 -2.00667 -176.256 9.35014 -22.1763 -1.71199 3.46008 35.8814 -17.7566 0.272369 -18.1912 -0.269085 2.22436 -4.95166 -5.29617 6.19682 4.44059 -0.0114597 4.27979 -3.21894 0.180799 -3.39994 -2.70079 -12.2277 -4.96962e-017 0 -0 -87.1982 -19.8941 -11.8407 -21.1886 12.2016 -1.03508 0.368473 9.90896 -0.00117926 2.67583 -0.690175 -9.88449 85.5355 -29.4797 6.78824 20.5274 13.4546 7.8028 -0.369625 9.91382 0.00119885 2.74666 -18.3408 -4.90265 -0.972178 66.9797 21.9423 -10.1241 -0.966385 0.162534 -6.42722 0.196131 10.2033 
11.118 97.5824 201.388 5.90014 -2.12491 -175.613 9.34576 -21.36 -1.71539 3.57076 36.1529 -18.291 0.500338 -19.5406 -0.240993 2.20341 -4.72355 -5.39359 6.60408 4.40149 -0.0319391 3.97434 -3.26158 0.17255 -3.7787 -2.63854 -12.4547 7.95139e-016 7.95139e-016 -0 -86.0478 -20.3286 -11.4642 -22.4442 12.5285 -3.10091 0.368473 9.90896 -0.00117926 1.74953 -0.538434 -8.89913 86.9339 -28.4001 7.95382 20.6265 13.4837 7.93214 -0.369625 9.91382 0.00119885 1.99797 -21.0853 -6.87411 -2.49625 67.1172 24.0275 -9.86286 -3.51432 -0.0554539 -7.20177 -6.42303 8.2377 
